<?xml version="1.0" standalone="no"?><!DOCTYPE svg PUBLIC "-//W3C//DTD SVG 1.1//EN" "http://www.w3.org/Graphics/SVG/1.1/DTD/svg11.dtd"><svg t="1604637811081" class="icon" viewBox="0 0 1024 1024" version="1.1" xmlns="http://www.w3.org/2000/svg" p-id="11653" xmlns:xlink="http://www.w3.org/1999/xlink" width="48" height="48"><defs><style type="text/css"></style></defs><path d="M976.21333333 409.6L580.26666667 75.09333333c-37.54666667-32.42666667-93.86666667-32.42666667-131.41333334 0L47.78666667 409.6c-8.53333333 6.82666667-13.65333333 15.36-13.65333334 27.30666667 0 18.77333333 15.36 34.13333333 34.13333334 34.13333333 8.53333333 0 17.06666667-3.41333333 22.18666666-8.53333333l11.94666667-10.24v380.58666666c0 76.8 58.02666667 139.94666667 131.41333333 139.94666667h556.37333334c71.68 0 131.41333333-63.14666667 131.41333333-139.94666667V452.26666667l10.24 8.53333333c6.82666667 5.12 13.65333333 8.53333333 23.89333333 8.53333333 18.77333333 0 34.13333333-15.36 34.13333334-34.13333333 0-8.53333333-5.12-18.77333333-13.65333334-25.6zM443.73333333 904.53333333V665.6c0-18.77333333 15.36-34.13333333 34.13333334-34.13333333h68.26666666c18.77333333 0 34.13333333 15.36 34.13333334 34.13333333v238.93333333h-136.53333334z m409.6-71.68c0 39.25333333-29.01333333 71.68-64.85333333 71.68H648.53333333V665.6c0-56.32-46.08-102.4-102.4-102.4h-68.26666666c-56.32 0-102.4 46.08-102.4 102.4v238.93333333h-139.94666667c-35.84 0-64.85333333-32.42666667-64.85333333-71.68V395.94666667L491.52 128c11.94666667-10.24 30.72-10.24 44.37333333 0L853.33333333 394.24v438.61333333z" fill="#0061b0" p-id="11654"></path></svg>